<svg xmlns="http://www.w3.org/2000/svg" width="19.298" height="18.477" viewBox="0 0 19.298 18.477"><path d="M10.634,1.054a.4.4,0,0,0-.232.084L1.154,8.354a.4.4,0,0,0,.495.634l.557-.434v10.57a.4.4,0,0,0,.4.4H8.169a.4.4,0,0,0,.131,0h4.693a.4.4,0,0,0,.131,0h5.565a.4.4,0,0,0,.4-.4V8.554l.557.434a.4.4,0,1,0,.495-.634L17.081,5.965V3.042H14.669v1.04L10.9,1.138A.4.4,0,0,0,10.634,1.054Zm.015.912,7.639,5.961v10.8H13.463V11.083H7.834v7.639H3.01V7.927Zm4.824,1.881h.8V5.338l-.8-.628ZM8.638,11.887h4.02v6.835H8.638Z" transform="translate(-0.999 -1.054)" fill="#fff"/></svg>