<svg xmlns="http://www.w3.org/2000/svg" width="11.034" height="17.001" viewBox="0 0 11.034 17.001"><g transform="translate(1651.693 318.075)"><path d="M-1646.238-301.575c-.283-.4-.576-.788-.848-1.194a35.613,35.613,0,0,1-2.67-4.653,16.214,16.214,0,0,1-1.279-3.642,5.907,5.907,0,0,1,.036-2.89,4.918,4.918,0,0,1,1.681-2.517,4.9,4.9,0,0,1,3.694-1.073,4.874,4.874,0,0,1,3.04,1.479,4.924,4.924,0,0,1,1.314,2.425,5.517,5.517,0,0,1-.1,2.611,20.412,20.412,0,0,1-1.457,3.778,52.285,52.285,0,0,1-3.137,5.52,1.123,1.123,0,0,1-.149.156Zm.058-8.546a2.325,2.325,0,0,0,2.325-2.309,2.32,2.32,0,0,0-2.308-2.338,2.319,2.319,0,0,0-2.333,2.313A2.325,2.325,0,0,0-1646.18-310.12Z" transform="translate(0 0)" fill="none" stroke="#fff" stroke-linecap="round" stroke-width="1"/></g></svg>