<svg xmlns="http://www.w3.org/2000/svg" width="15.354" height="13.94" viewBox="0 0 15.354 13.94"><g transform="translate(-1 -1.5)"><g transform="translate(1 1.5)"><path d="M15.433,1.5H1.921A.921.921,0,0,0,1,2.421v9.827a.921.921,0,0,0,.921.921H3.907L5.146,15.03a.921.921,0,0,0,1.533,0L7.92,13.169h7.513a.921.921,0,0,0,.921-.921V2.421A.921.921,0,0,0,15.433,1.5Zm.307,10.748a.307.307,0,0,1-.307.307H7.756a.307.307,0,0,0-.256.137l-1.331,2a.315.315,0,0,1-.511,0l-1.332-2a.307.307,0,0,0-.255-.137H1.921a.307.307,0,0,1-.307-.307V2.421a.307.307,0,0,1,.307-.307H15.433a.307.307,0,0,1,.307.307Z" transform="translate(-1 -1.5)" fill="#fff"/><path d="M19.548,13.48H10.325a.307.307,0,0,0,0,.614h9.223a.307.307,0,0,0,0-.614Z" transform="translate(-7.249 -9.801)" fill="#fff"/><path d="M19.548,19.422H10.325a.307.307,0,1,0,0,.614h9.223a.307.307,0,0,0,0-.614Z" transform="translate(-7.249 -13.918)" fill="#fff"/><path d="M19.514,25.626H10.276a.307.307,0,0,0,0,.614h9.238a.307.307,0,1,0,0-.614Z" transform="translate(-7.215 -18.217)" fill="#fff"/></g></g></svg>