<svg xmlns="http://www.w3.org/2000/svg" width="17.987" height="17.987" viewBox="0 0 17.987 17.987"><g transform="translate(-4 -4)"><path d="M12.994,4a8.994,8.994,0,1,0,8.994,8.994A8.995,8.995,0,0,0,12.994,4Zm0,17.6a8.6,8.6,0,1,1,8.6-8.6A8.6,8.6,0,0,1,12.994,21.6Z" fill="#fff"/><path d="M35.914,17.666,35.387,16.2l-.587.235.665,1.408C35.6,17.784,35.758,17.725,35.914,17.666Z" transform="translate(-24.778 -9.815)" fill="#fff"/><path d="M16.1,60.028l.235.587,1.408-.665a4.473,4.473,0,0,1-.2-.45Z" transform="translate(-9.734 -44.649)" fill="#fff"/><path d="M24.729,24.729l.176-.176L23.85,23.4c-.078.078-.156.137-.235.215a2.344,2.344,0,0,0-.215.235l1.154,1.056Z" transform="translate(-15.607 -15.607)" fill="#fff"/><path d="M15.564,48.632v-.254L14,48.3v.626l1.564-.078Z" transform="translate(-8.045 -35.639)" fill="#fff"/><path d="M75.5,35.814l1.466-.528c-.078-.2-.156-.391-.254-.587l-1.408.665A3.12,3.12,0,0,1,75.5,35.814Z" transform="translate(-57.36 -24.698)" fill="#fff"/><path d="M75.4,59.95l1.427.665a3.669,3.669,0,0,0,.235-.587L75.6,59.5C75.537,59.637,75.478,59.793,75.4,59.95Z" transform="translate(-57.44 -44.649)" fill="#fff"/><path d="M78,48.632v.235l1.564.059V48.3L78,48.378Z" transform="translate(-59.532 -35.639)" fill="#fff"/><path d="M69.152,24.905l1.154-1.056a2.231,2.231,0,0,0-.215-.215l-.235-.235L68.8,24.554a1.762,1.762,0,0,0,.2.176A1.263,1.263,0,0,1,69.152,24.905Z" transform="translate(-52.131 -15.607)" fill="#fff"/><path d="M48.787,15.564,48.845,14H48.2l.078,1.564Z" transform="translate(-35.558 -8.045)" fill="#fff"/><path d="M60.614,16.435a3.669,3.669,0,0,0-.587-.235L59.5,17.666a3.119,3.119,0,0,1,.45.2Z" transform="translate(-44.649 -9.815)" fill="#fff"/><path d="M18.729,37.259a1.156,1.156,0,0,0,1.154,1.154,1.154,1.154,0,1,0-.88-1.9L12.687,34.17a.082.082,0,0,0-.117.059.087.087,0,0,0,.059.117l6.12,2.815C18.748,37.2,18.729,37.22,18.729,37.259Zm1.154-.782a.782.782,0,1,1-.782.782A.784.784,0,0,1,19.882,36.477Z" transform="translate(-6.888 -24.265)" fill="#fff"/><path d="M30.934,73.34a6.012,6.012,0,0,1-4.223-1.74l-.411.411a6.561,6.561,0,0,0,9.267,0l-.411-.411A6.012,6.012,0,0,1,30.934,73.34Z" transform="translate(-17.94 -54.383)" fill="#fff"/></g></svg>