<svg xmlns="http://www.w3.org/2000/svg" width="19.564" height="12.717" viewBox="0 0 19.564 12.717"><g transform="translate(0 -106.667)"><g transform="translate(2.609 115.471)"><path d="M70.223,337.067a1.956,1.956,0,1,0,1.956,1.956A1.958,1.958,0,0,0,70.223,337.067Zm0,3.261a1.3,1.3,0,1,1,1.3-1.3A1.306,1.306,0,0,1,70.223,340.328Z" transform="translate(-68.267 -337.067)" fill="#fff"/></g><g transform="translate(13.695 115.471)"><path d="M360.356,337.067a1.956,1.956,0,1,0,1.956,1.956A1.958,1.958,0,0,0,360.356,337.067Zm0,3.261a1.3,1.3,0,1,1,1.3-1.3A1.306,1.306,0,0,1,360.356,340.328Z" transform="translate(-358.4 -337.067)" fill="#fff"/></g><g transform="translate(12.39 108.949)"><g transform="translate(0 0)"><path d="M331.389,171.115l-2.935-4.565a.326.326,0,0,0-.274-.15h-3.587a.326.326,0,0,0-.326.326v8.152a.326.326,0,0,0,.326.326h1.3v-.652h-.978v-7.5H328l2.787,4.335v3.165h-1.63v.652h1.956a.326.326,0,0,0,.326-.326v-3.587A.325.325,0,0,0,331.389,171.115Z" transform="translate(-324.267 -166.4)" fill="#fff"/></g></g><g transform="translate(13.695 110.254)"><g transform="translate(0 0)"><path d="M359.053,203.468v-2.282h2.609v-.652h-2.935a.326.326,0,0,0-.326.326v2.935a.326.326,0,0,0,.326.326h4.891v-.652h-4.565Z" transform="translate(-358.401 -200.533)" fill="#fff"/></g></g><g transform="translate(0 106.667)"><g transform="translate(0 0)"><path d="M12.716,106.667H.326a.326.326,0,0,0-.326.326v10.434a.326.326,0,0,0,.326.326H2.935V117.1H.652v-9.782H12.39V117.1H6.2v.652h6.521a.326.326,0,0,0,.326-.326V106.993A.326.326,0,0,0,12.716,106.667Z" transform="translate(0 -106.667)" fill="#fff"/></g></g><g transform="translate(0.326 115.797)"><g transform="translate(0 0)"><rect width="1.956" height="0.652" fill="#fff"/></g></g><g transform="translate(6.847 115.797)"><g transform="translate(0 0)"><rect width="5.543" height="0.652" fill="#fff"/></g></g><g transform="translate(17.933 115.797)"><g transform="translate(0 0)"><rect width="1.304" height="0.652" fill="#fff"/></g></g><g transform="translate(1.304 107.971)"><g transform="translate(0 0)"><rect width="11.412" height="0.652" fill="#fff"/></g></g><g transform="translate(4.239 117.101)"><g transform="translate(0 0)"><rect width="0.652" height="0.652" fill="#fff"/></g></g><g transform="translate(15.325 117.101)"><g transform="translate(0 0)"><rect width="0.652" height="0.652" fill="#fff"/></g></g></g></svg>